<?xml version="1.0" encoding="UTF-8" standalone="no"?>
<!-- Created with Inkscape (http://www.inkscape.org/) -->

<svg
   xmlns:dc="http://purl.org/dc/elements/1.1/"
   xmlns:cc="http://creativecommons.org/ns#"
   xmlns:rdf="http://www.w3.org/1999/02/22-rdf-syntax-ns#"
   xmlns:svg="http://www.w3.org/2000/svg"
   xmlns="http://www.w3.org/2000/svg"
   xmlns:sodipodi="http://sodipodi.sourceforge.net/DTD/sodipodi-0.dtd"
   xmlns:inkscape="http://www.inkscape.org/namespaces/inkscape"
   width="127.7568mm"
   height="76.452019mm"
   viewBox="0 0 127.7568 76.452019"
   version="1.1"
   id="svg8"
   inkscape:version="0.92.1 r15371"
   sodipodi:docname="NEW_AMS.svg">
  <defs
     id="defs2">
    <clipPath
       id="clipPath4522"
       clipPathUnits="userSpaceOnUse">
      <path
         inkscape:connector-curvature="0"
         id="path4520"
         d="m 74.7602,703.76 v -221 H 372.76 v 221 z" />
    </clipPath>
    <clipPath
       id="clipPath4528"
       clipPathUnits="userSpaceOnUse">
      <path
         inkscape:connector-curvature="0"
         id="path4526"
         d="M 0,0 H 612 V 792 H 0 Z" />
    </clipPath>
    <clipPath
       id="clipPath4556"
       clipPathUnits="userSpaceOnUse">
      <path
         style="clip-rule:evenodd"
         inkscape:connector-curvature="0"
         id="path4554"
         d="m 74.7602,703.76 v -221 H 372.76 v 221 z m 78.1798,-60.06 -5.46,-13.44 8.52,-3.42 5.4,13.38 v 0 l -8.82,-9.6 z" />
    </clipPath>
    <clipPath
       id="clipPath4562"
       clipPathUnits="userSpaceOnUse">
      <path
         inkscape:connector-curvature="0"
         id="path4560"
         d="M 0,0 H 612 V 792 H 0 Z" />
    </clipPath>
    <clipPath
       id="clipPath4574"
       clipPathUnits="userSpaceOnUse">
      <path
         inkscape:connector-curvature="0"
         id="path4572"
         d="m 74.7602,703.76 v -221 H 372.76 v 221 z" />
    </clipPath>
    <clipPath
       id="clipPath4580"
       clipPathUnits="userSpaceOnUse">
      <path
         inkscape:connector-curvature="0"
         id="path4578"
         d="M 0,0 H 612 V 792 H 0 Z" />
    </clipPath>
    <clipPath
       id="clipPath4594"
       clipPathUnits="userSpaceOnUse">
      <path
         style="clip-rule:evenodd"
         inkscape:connector-curvature="0"
         id="path4592"
         d="m 74.7602,703.76 v -221 H 372.76 v 221 z M 166.8,582.86 159.24,596 l -7.08,-4.02 7.56,-13.14 v 0 l -2.76,13.02 z" />
    </clipPath>
    <clipPath
       id="clipPath4600"
       clipPathUnits="userSpaceOnUse">
      <path
         inkscape:connector-curvature="0"
         id="path4598"
         d="M 0,0 H 612 V 792 H 0 Z" />
    </clipPath>
    <clipPath
       id="clipPath4612"
       clipPathUnits="userSpaceOnUse">
      <path
         inkscape:connector-curvature="0"
         id="path4610"
         d="m 74.7602,703.76 v -221 H 372.76 v 221 z" />
    </clipPath>
    <clipPath
       id="clipPath4618"
       clipPathUnits="userSpaceOnUse">
      <path
         inkscape:connector-curvature="0"
         id="path4616"
         d="M 0,0 H 612 V 792 H 0 Z" />
    </clipPath>
    <clipPath
       id="clipPath4632"
       clipPathUnits="userSpaceOnUse">
      <path
         style="clip-rule:evenodd"
         inkscape:connector-curvature="0"
         id="path4630"
         d="m 74.7602,703.76 v -221 H 372.76 v 221 z m 99.5998,-67.08 -12.3,-9.84 5.04,-6.36 12.36,9.84 v 0 l -12.9,-5.1 z" />
    </clipPath>
    <clipPath
       id="clipPath4638"
       clipPathUnits="userSpaceOnUse">
      <path
         inkscape:connector-curvature="0"
         id="path4636"
         d="M 0,0 H 612 V 792 H 0 Z" />
    </clipPath>
    <clipPath
       id="clipPath4650"
       clipPathUnits="userSpaceOnUse">
      <path
         inkscape:connector-curvature="0"
         id="path4648"
         d="m 74.7602,703.76 v -221 H 372.76 v 221 z" />
    </clipPath>
    <clipPath
       id="clipPath4656"
       clipPathUnits="userSpaceOnUse">
      <path
         inkscape:connector-curvature="0"
         id="path4654"
         d="M 0,0 H 612 V 792 H 0 Z" />
    </clipPath>
    <clipPath
       id="clipPath4670"
       clipPathUnits="userSpaceOnUse">
      <path
         style="clip-rule:evenodd"
         inkscape:connector-curvature="0"
         id="path4668"
         d="m 74.7602,703.76 v -221 H 372.76 v 221 z m 237.1198,-70.74 13.98,5.22 -3.66,9.54 -13.92,-5.22 v 0 l 13.74,-0.3 z" />
    </clipPath>
    <clipPath
       id="clipPath4676"
       clipPathUnits="userSpaceOnUse">
      <path
         inkscape:connector-curvature="0"
         id="path4674"
         d="M 0,0 H 612 V 792 H 0 Z" />
    </clipPath>
    <clipPath
       id="clipPath4688"
       clipPathUnits="userSpaceOnUse">
      <path
         inkscape:connector-curvature="0"
         id="path4686"
         d="m 74.7602,703.76 v -221 H 372.76 v 221 z" />
    </clipPath>
    <clipPath
       id="clipPath4694"
       clipPathUnits="userSpaceOnUse">
      <path
         inkscape:connector-curvature="0"
         id="path4692"
         d="M 0,0 H 612 V 792 H 0 Z" />
    </clipPath>
    <clipPath
       id="clipPath4728"
       clipPathUnits="userSpaceOnUse">
      <path
         inkscape:connector-curvature="0"
         id="path4726"
         d="M -2,-4 H 10 V 5 H -2 Z" />
    </clipPath>
    <pattern
       id="pattern4740"
       height="9"
       width="12"
       y="0"
       x="0"
       patternUnits="userSpaceOnUse"
       patternTransform="matrix(10,0,0,10,748,4828)">
      <g
         id="g4730" />
      <g
         id="g4738">
        <g
           id="g4736"
           clip-path="url(#clipPath4728)">
          <g
             id="g4734"
             transform="scale(0.1)">
            <path
               id="path4732"
               style="fill:none;stroke:#000000;stroke-opacity:1;stroke-width:7;stroke-linecap:butt;stroke-linejoin:miter;stroke-miterlimit:10;stroke-dasharray:none"
               d="M -20,-10 100,50" />
          </g>
        </g>
      </g>
    </pattern>
    <clipPath
       id="clipPath4766"
       clipPathUnits="userSpaceOnUse">
      <path
         inkscape:connector-curvature="0"
         id="path4764"
         d="M 0,0 H 612 V 792 H 0 Z" />
    </clipPath>
  </defs>
  <sodipodi:namedview
     id="base"
     pagecolor="#ffffff"
     bordercolor="#666666"
     borderopacity="1.0"
     inkscape:pageopacity="0.0"
     inkscape:pageshadow="2"
     inkscape:zoom="1.979899"
     inkscape:cx="164.44955"
     inkscape:cy="132.71741"
     inkscape:document-units="mm"
     inkscape:current-layer="layer1"
     showgrid="false"
     inkscape:window-width="1920"
     inkscape:window-height="1043"
     inkscape:window-x="0"
     inkscape:window-y="0"
     inkscape:window-maximized="1" />
  <metadata
     id="metadata5">
    <rdf:RDF>
      <cc:Work
         rdf:about="">
        <dc:format>image/svg+xml</dc:format>
        <dc:type
           rdf:resource="http://purl.org/dc/dcmitype/StillImage" />
        <dc:title></dc:title>
      </cc:Work>
    </rdf:RDF>
  </metadata>
  <g
     inkscape:label="Layer 1"
     inkscape:groupmode="layer"
     id="layer1"
     transform="translate(-30.615648,-41.815656)">
    <g
       transform="matrix(0.35277777,0,0,-0.35277777,3.8127905,289.49953)"
       inkscape:label="NEW_AMS"
       id="g4512">
      <g
         id="g4514" />
      <g
         id="g4516">
        <g
           clip-path="url(#clipPath4522)"
           id="g4518">
          <g
             clip-path="url(#clipPath4528)"
             id="g4524">
            <path
               inkscape:connector-curvature="0"
               id="path4530"
               style="fill:#ff8080;fill-opacity:1;fill-rule:evenodd;stroke:none"
               d="m 154.2,631.16 1.02,0.24 1.02,0.12 1.08,0.12 h 2.28 l 1.2,-0.12 1.26,-0.12 1.2,-0.24 1.26,-0.24 1.26,-0.36 1.26,-0.42 1.2,-0.48 1.14,-0.48 1.08,-0.6 1.08,-0.6 1.02,-0.6 0.9,-0.72 0.84,-0.72 0.78,-0.72 0.78,-0.84 0.66,-0.84 0.6,-0.9 0.6,-0.9 0.48,-1.02 0.48,-1.08 0.42,-1.08 0.3,-1.2 0.3,-1.2 0.24,-1.26 0.12,-1.2 0.06,-1.26 v -1.26 l -0.06,-1.26 -0.18,-1.2 -0.24,-1.2 -0.3,-1.14 -0.36,-1.08 -0.42,-1.02 -0.48,-1.02 -0.54,-0.96 -0.54,-0.78 -0.66,-0.84 -0.66,-0.78 -0.72,-0.78 -0.84,-0.78 -0.9,-0.72 -0.9,-0.72 -1.02,-0.66 -1.08,-0.66 -1.08,-0.66 -1.14,-0.54 -1.2,-0.54 -1.2,-0.48 -1.2,-0.48 -1.2,-0.36 -1.2,-0.36 -1.2,-0.24 -1.2,-0.24 -1.14,-0.18 -1.2,-0.12 -1.08,-0.06 h -2.34 l -1.26,0.12 -1.26,0.12 -1.2,0.18 -1.26,0.3 -1.26,0.3 -1.26,0.36 -1.26,0.42 -1.2,0.48 -1.2,0.54 -1.14,0.54 -1.08,0.6 -0.96,0.6 -0.96,0.66 -0.84,0.66 -0.78,0.66 -0.72,0.72 -0.6,0.66 -0.48,0.72 -0.48,0.66 -0.42,0.78 -0.3,0.84 -0.24,0.84 -0.18,0.84 -0.06,0.96 v 0.9 l 0.06,1.02 0.18,0.96 0.24,1.02 0.3,1.08 0.36,1.02 0.36,1.02 0.48,0.96 0.48,1.02 0.48,0.96 0.54,0.96 0.6,0.9 0.54,0.9 0.6,0.9 0.66,0.9 0.66,0.96 0.72,0.9 0.72,0.96 0.84,0.96 0.84,0.96 0.9,0.9 0.9,0.9 0.96,0.84 1.02,0.78 1.02,0.72 1.02,0.66 1.02,0.6 1.08,0.54 1.02,0.42 1.08,0.36" />
            <g
               transform="scale(0.1)"
               id="g4532">
              <path
                 inkscape:connector-curvature="0"
                 id="path4534"
                 style="fill:none;stroke:#000000;stroke-width:4.5;stroke-linecap:butt;stroke-linejoin:bevel;stroke-miterlimit:10;stroke-dasharray:none;stroke-opacity:1"
                 d="m 1542,6311.6 10.2,2.4 10.2,1.2 10.8,1.2 h 22.8 l 12,-1.2 12.6,-1.2 12,-2.4 12.6,-2.4 12.6,-3.6 12.6,-4.2 12,-4.8 11.4,-4.8 10.8,-6 10.8,-6 10.2,-6 9,-7.2 8.4,-7.2 7.8,-7.2 7.8,-8.4 6.6,-8.4 6,-9 6,-9 4.8,-10.2 4.8,-10.8 4.2,-10.8 3,-12 3,-12 2.4,-12.6 1.2,-12 0.6,-12.6 v -12.6 l -0.6,-12.6 -1.8,-12 -2.4,-12 -3,-11.4 -3.6,-10.8 -4.2,-10.2 -4.8,-10.2 -5.4,-9.6 -5.4,-7.8 -6.6,-8.4 -6.6,-7.8 -7.2,-7.8 -8.4,-7.8 -9,-7.2 -9,-7.2 -10.2,-6.6 -10.8,-6.6 -10.8,-6.6 -11.4,-5.4 -12,-5.4 -12,-4.8 -12,-4.8 -12,-3.6 -12,-3.6 -12,-2.4 -12,-2.4 -11.4,-1.8 -12,-1.2 -10.8,-0.6 h -23.4 l -12.6,1.2 -12.6,1.2 -12,1.8 -12.6,3 -12.6,3 -12.6,3.6 -12.6,4.2 -12,4.8 -12,5.4 -11.4,5.4 -10.8,6 -9.6,6 -9.6,6.6 -8.4,6.6 -7.8,6.6 -7.2,7.2 -6,6.6 -4.8,7.2 -4.8,6.6 -4.2,7.8 -3,8.4 -2.4,8.4 -1.8,8.4 -0.6,9.6 v 9 l 0.6,10.2 1.8,9.6 2.4,10.2 3,10.8 3.6,10.2 3.6,10.2 4.8,9.6 4.8,10.2 4.8,9.6 5.4,9.6 6,9 5.4,9 6,9 6.6,9 6.6,9.6 7.2,9 7.2,9.6 8.4,9.6 8.4,9.6 9,9 9,9 9.6,8.4 10.2,7.8 10.2,7.2 10.2,6.6 10.2,6 10.8,5.4 10.2,4.2 10.8,3.6 z" />
            </g>
            <path
               inkscape:connector-curvature="0"
               id="path4536"
               style="fill:#80ff80;fill-opacity:1;fill-rule:evenodd;stroke:none"
               d="m 349.44,674.48 0.84,0.18 0.9,0.12 h 1.8 l 0.84,-0.12 0.9,-0.24 0.9,-0.24 0.84,-0.36 0.9,-0.42 0.84,-0.48 0.84,-0.54 0.78,-0.6 0.78,-0.66 0.72,-0.66 0.72,-0.78 0.66,-0.72 0.6,-0.84 0.6,-0.78 0.54,-0.84 0.48,-0.9 0.48,-0.84 0.42,-0.9 0.48,-1.02 0.42,-1.02 0.36,-1.14 0.36,-1.14 0.36,-1.2 0.3,-1.26 0.24,-1.26 0.24,-1.38 0.18,-1.38 0.18,-1.38 0.12,-1.44 0.06,-1.44 0.06,-1.44 v -1.38 l -0.06,-1.44 -0.06,-1.32 -0.12,-1.38 -0.12,-1.32 -0.18,-1.26 -0.24,-1.32 -0.24,-1.14 -0.24,-1.2 -0.3,-1.14 -0.3,-1.2 -0.42,-1.2 -0.42,-1.2 -0.42,-1.2 -0.54,-1.14 -0.6,-1.14 -0.6,-1.08 -0.66,-1.02 -0.72,-1.02 -0.78,-0.9 -0.78,-0.84 -0.9,-0.72 -0.84,-0.66 -0.9,-0.54 -0.96,-0.48 -1.02,-0.36 -0.96,-0.24 -1.08,-0.18 -1.08,-0.06 -1.14,0.06 -1.2,0.18 -1.26,0.24 -1.32,0.36 -1.38,0.42 -1.44,0.54 -1.44,0.66 -1.5,0.72 -1.56,0.78 -1.5,0.84 -1.56,0.96 -1.5,0.96 -1.44,1.02 -1.44,1.02 -1.32,1.08 -1.32,1.02 -1.2,1.08 -1.08,1.02 -1.02,1.08 -0.96,0.96 -0.84,1.02 -0.72,0.96 -0.66,0.96 -0.54,0.9 -0.48,0.96 -0.42,0.9 -0.3,0.96 -0.3,0.96 -0.12,0.96 -0.12,0.96 v 1.02 l 0.06,0.96 0.18,1.02 0.18,0.96 0.3,0.96 0.36,0.96 0.42,0.96 0.42,0.96 0.54,0.9 0.54,0.96 0.6,0.9 0.6,0.9 0.66,0.9 0.66,0.84 0.78,1.02 0.84,1.02 0.9,1.08 0.9,1.08 1.02,1.08 1.02,1.08 1.14,1.14 1.08,1.08 1.2,1.14 1.2,1.02 1.2,1.02 1.2,0.96 1.2,0.9 1.2,0.84 1.14,0.72 1.14,0.66 1.08,0.54 1.08,0.42 1.02,0.42" />
            <g
               transform="scale(0.1)"
               id="g4538">
              <path
                 inkscape:connector-curvature="0"
                 id="path4540"
                 style="fill:none;stroke:#000000;stroke-width:4.5;stroke-linecap:butt;stroke-linejoin:bevel;stroke-miterlimit:10;stroke-dasharray:none;stroke-opacity:1"
                 d="m 3494.4,6744.8 8.4,1.8 9,1.2 h 18 l 8.4,-1.2 9,-2.4 9,-2.4 8.4,-3.6 9,-4.2 8.4,-4.8 8.4,-5.4 7.8,-6 7.8,-6.6 7.2,-6.6 7.2,-7.8 6.6,-7.2 6,-8.4 6,-7.8 5.4,-8.4 4.8,-9 4.8,-8.4 4.2,-9 4.8,-10.2 4.2,-10.2 3.6,-11.4 3.6,-11.4 3.6,-12 3,-12.6 2.4,-12.6 2.4,-13.8 1.8,-13.8 1.8,-13.8 1.2,-14.4 0.6,-14.4 0.6,-14.4 v -13.8 l -0.6,-14.4 -0.6,-13.2 -1.2,-13.8 -1.2,-13.2 -1.8,-12.6 -2.4,-13.2 -2.4,-11.4 -2.4,-12 -3,-11.4 -3,-12 -4.2,-12 -4.2,-12 -4.2,-12 -5.4,-11.4 -6,-11.4 -6,-10.8 -6.6,-10.2 -7.2,-10.2 -7.8,-9 -7.8,-8.4 -9,-7.2 -8.4,-6.6 -9,-5.4 -9.6,-4.8 -10.2,-3.6 -9.6,-2.4 -10.8,-1.8 -10.8,-0.6 -11.4,0.6 -12,1.8 -12.6,2.4 -13.2,3.6 -13.8,4.2 -14.4,5.4 -14.4,6.6 -15,7.2 -15.6,7.8 -15,8.4 -15.6,9.6 -15,9.6 -14.4,10.2 -14.4,10.2 -13.2,10.8 -13.2,10.2 -12,10.8 -10.8,10.2 -10.2,10.8 -9.6,9.6 -8.4,10.2 -7.2,9.6 -6.6,9.6 -5.4,9 -4.8,9.6 -4.2,9 -3,9.6 -3,9.6 -1.2,9.6 -1.2,9.6 v 10.2 l 0.6,9.6 1.8,10.2 1.8,9.6 3,9.6 3.6,9.6 4.2,9.6 4.2,9.6 5.4,9 5.4,9.6 6,9 6,9 6.6,9 6.6,8.4 7.8,10.2 8.4,10.2 9,10.8 9,10.8 10.2,10.8 10.2,10.8 11.4,11.4 10.8,10.8 12,11.4 12,10.2 12,10.2 12,9.6 12,9 12,8.4 11.4,7.2 11.4,6.6 10.8,5.4 10.8,4.2 10.2,4.2 z" />
            </g>
            <g
               transform="scale(0.1)"
               id="g4542">
              <path
                 inkscape:connector-curvature="0"
                 id="path4544"
                 style="fill:none;stroke:#000000;stroke-width:4.5;stroke-linecap:butt;stroke-linejoin:bevel;stroke-miterlimit:10;stroke-dasharray:none;stroke-opacity:1"
                 d="m 3227.4,6431 h 0.6 l 2.4,1.8 6,3 9.6,4.8 11.4,6 11.4,6.6 10.8,6 9.6,5.4 7.8,4.8 6,4.8 5.4,3.6 4.2,4.2 3,3.6 2.4,3 2.4,3.6 1.8,3.6 1.2,4.2 1.2,4.2 v 7.8 l -1.2,4.2 -1.2,4.2 -1.8,4.2 -2.4,4.2 -2.4,4.2 -3,4.2 -4.2,4.8 -5.4,5.4 -5.4,5.4 -6,6.6 -6.6,6 -7.2,6.6 -7.2,7.2 -6.6,7.2 -7.2,6.6 -6,7.2 -5.4,6.6 -5.4,6.6 -4.8,6.6 -4.2,7.8 -3.6,7.2 -3.6,8.4 -3,8.4 -2.4,9 -1.2,8.4 -1.2,9 -0.6,8.4 0.6,8.4 1.2,7.8 1.2,7.8 1.8,6.6 2.4,7.2 3,6.6 3.6,7.2 4.2,6.6 4.8,6.6 4.8,6.6 6,5.4 5.4,5.4 6.6,4.8 6,3.6 6.6,3 6,1.8 6.6,1.2 7.2,0.6 7.2,-0.6 7.2,-1.2 7.8,-1.8 8.4,-2.4 8.4,-3.6 9,-4.2 8.4,-4.8 7.8,-4.8 8.4,-5.4 7.2,-5.4 7.2,-6 6.6,-5.4 6,-6 6.6,-7.2 6,-6.6 6.6,-7.8 6,-7.2 6,-7.8 6.6,-7.2 6,-6.6 5.4,-6.6 6,-5.4 5.4,-4.2 6,-3 5.4,-3 6,-1.2 6.6,-0.6 h 7.2 l 8.4,0.6 8.4,1.8 9.6,1.2 10.2,2.4 10.2,1.8 10.8,2.4 10.8,1.8 10.8,1.8 11.4,1.2 10.2,0.6 h 22.2 l 12,-0.6 12,-1.2 12,-1.2 12,-2.4 10.8,-2.4 10.8,-3.6 9.6,-3.6 7.8,-4.2 6.6,-4.8 5.4,-4.8 4.2,-6 3,-6 1.2,-6.6 v -7.8 l -1.2,-8.4 -1.8,-9 -3.6,-9.6 -4.2,-10.2 -4.8,-10.8 -5.4,-10.8 -6,-10.8 -6,-10.8 -6,-10.2 -6,-10.2 -6,-10.2 -4.8,-9 -5.4,-9 -4.8,-9 -4.8,-9 -4.8,-10.2 -4.2,-9.6 -4.2,-10.2 -3.6,-10.2 -3,-9.6 -2.4,-10.2 -1.8,-9.6 -1.2,-9 -0.6,-9 0.6,-8.4 1.2,-8.4 1.8,-8.4 3,-9 3.6,-9 4.8,-9.6 6,-9.6 6,-9.6 6.6,-10.2 7.2,-9.6 6.6,-9.6 6.6,-9.6 6,-9 5.4,-8.4 4.2,-8.4 3.6,-7.8 2.4,-7.8 0.6,-5.4 0.6,-4.8 -0.6,-5.4 -0.6,-5.4 -1.2,-4.8 -1.8,-4.8 -2.4,-4.8 -3,-4.8 -3.6,-4.2 -3.6,-4.2 -4.2,-3.6 -4.8,-3.6 -4.8,-3 -5.4,-1.8 -5.4,-1.8 -5.4,-1.8 -5.4,-0.6 h -11.4 l -5.4,1.2 -7.8,1.8 -7.2,3 -8.4,3.6 -8.4,4.2 -9,5.4 -9.6,6 -9.6,6.6 -9.6,6.6 -10.2,7.8 -10.2,7.2 -10.2,7.8 -10.2,7.2 -9.6,7.2 -9.6,6.6 -9.6,6.6 -9.6,6 -9.6,5.4 -9.6,5.4 -10.2,5.4 -10.2,4.8 -10.2,4.8 -10.8,4.8 -10.8,4.2 -10.8,4.2 -10.2,3.6 -9.6,3 -9.6,3 -8.4,3 -8.4,2.4 -7.2,1.8 -6.6,1.8 -6.6,1.8 -10.2,2.4 -9,1.8 -8.4,1.8 -7.8,1.2 -7.2,0.6 -5.4,0.6 h -3" />
            </g>
            <g
               transform="scale(0.1)"
               id="g4546">
              <path
                 inkscape:connector-curvature="0"
                 id="path4548"
                 style="fill:none;stroke:#0000ff;stroke-width:27;stroke-linecap:butt;stroke-linejoin:bevel;stroke-miterlimit:10;stroke-dasharray:54;stroke-dashoffset:0;stroke-opacity:1"
                 d="m 2020.2,5840 1.8,1.8 3.6,3 6.6,6 8.4,7.8 10.8,9.6 11.4,10.2 11.4,10.8 10.8,10.2 10.2,9.6 9,9 8.4,7.8 7.2,7.8 7.2,6.6 6,7.2 6,6.6 5.4,6.6 6,7.2 5.4,7.2 6,7.2 5.4,7.8 6,8.4 5.4,8.4 6,8.4 5.4,9 5.4,9 5.4,9 5.4,9 4.8,9 4.8,9 4.8,9 4.8,9 4.8,9.6 4.2,9.6 4.8,10.2 4.8,10.8 4.8,10.8 4.2,11.4 4.2,12 3.6,11.4 3,12 2.4,11.4 1.8,10.8 0.6,10.8 0.6,10.2 -1.2,9.6 -1.2,9 -2.4,8.4 -3.6,8.4 -4.2,7.8 -5.4,7.8 -6.6,7.2 -7.2,7.2 -7.8,7.2 -8.4,6.6 -9.6,6 -9.6,6 -9.6,4.8 -9.6,4.8 -9.6,3.6 -9,3.6 -9,3 -8.4,2.4 -8.4,1.8 -10.2,1.8 -9.6,0.6 -10.2,0.6 h -9.6 l -9.6,-1.2 -9.6,-1.8 -9.6,-1.8 -9,-2.4 -9,-2.4 -9,-3 -8.4,-3 -8.4,-3 -7.8,-2.4 -8.4,-2.4 -8.4,-3 -9,-2.4 -9,-3.6 -9.6,-3 -9.6,-3.6 -10.2,-3 -9.6,-3.6 -9,-3.6 -9,-3.6 -8.4,-3.6 -7.8,-4.2 -7.2,-3.6 -8.4,-4.2 -8.4,-5.4 -8.4,-4.8 -8.4,-6 -8.4,-5.4 -8.4,-6 -7.8,-5.4 -7.8,-5.4 -7.2,-5.4 -7.2,-4.8 -6.6,-4.2 -6.6,-4.2 -7.2,-3.6 -6.6,-3 -7.8,-3 -8.4,-3 -9.6,-3.6 -10.8,-3 -11.4,-3 -10.8,-3 -9,-2.4 -5.4,-1.8 -2.4,-0.6 h -0.6" />
            </g>
          </g>
        </g>
      </g>
      <g
         id="g4550">
        <g
           clip-path="url(#clipPath4556)"
           id="g4552">
          <g
             clip-path="url(#clipPath4562)"
             id="g4558">
            <g
               transform="scale(0.1)"
               id="g4564">
              <path
                 inkscape:connector-curvature="0"
                 id="path4566"
                 style="fill:none;stroke:#0000ff;stroke-width:27;stroke-linecap:butt;stroke-linejoin:bevel;stroke-miterlimit:10;stroke-dasharray:none;stroke-opacity:1"
                 d="m 2030.4,5850.2 h 7.8 l 8.4,-0.6 h 11.4 l 13.2,-0.6 h 13.2 l 12.6,-0.6 h 32.4 l 9.6,0.6 8.4,0.6 9,0.6 8.4,0.6 9,0.6 9.6,1.2 9.6,1.2 10.2,1.8 10.2,1.2 10.8,1.8 10.2,2.4 10.2,1.8 10.2,2.4 9.6,1.8 9.6,2.4 9,2.4 9,1.8 8.4,2.4 8.4,3 9,2.4 9,3 9.6,3 9.6,3.6 9,3.6 9.6,3.6 9,3.6 8.4,4.2 8.4,3.6 7.8,3.6 7.8,4.2 7.2,3.6 7.2,4.2 7.2,4.2 7.2,4.8 7.2,4.8 7.8,5.4 7.2,5.4 7.8,5.4 7.8,5.4 7.2,5.4 7.2,6 6.6,5.4 6.6,4.8 6,5.4 6,4.8 7.2,6 7.2,6 7.2,6.6 7.8,6.6 7.2,6.6 7.8,7.2 7.8,7.2 7.2,7.2 6.6,7.2 6.6,6.6 6,7.2 6,6.6 4.8,6 4.8,6 4.8,6.6 4.8,6.6 4.8,7.2 4.8,7.8 4.8,7.8 4.2,7.8 4.8,7.8 3.6,7.8 4.2,7.8 3.6,7.8 3,7.8 3,7.2 3,7.8 3,7.8 3,7.8 2.4,9 2.4,8.4 3,9.6 1.8,9 2.4,9 1.8,9.6 1.8,8.4 1.8,9 1.2,7.8 1.2,7.8 0.6,7.8 1.2,9 0.6,8.4 0.6,9 v 27.6 l -0.6,9 -0.6,9 -0.6,8.4 -0.6,7.8 -1.2,7.2 -1.2,7.2 -1.2,7.2 -1.2,7.2 -1.8,7.2 -1.8,7.2 -2.4,7.8 -2.4,7.8 -2.4,7.8 -3,7.8 -3,7.8 -3,7.2 -3.6,7.2 -3.6,7.2 -3,6 -3.6,6.6 -4.2,7.2 -4.2,6.6 -4.8,7.8 -5.4,7.2 -5.4,7.8 -6,7.8 -6,7.8 -6.6,7.8 -6.6,7.2 -6.6,7.2 -7.2,6.6 -6.6,6.6 -6.6,5.4 -6.6,6 -7.8,6 -7.8,6 -7.8,6 -9,6.6 -9.6,7.2 -9.6,6.6 -9.6,7.2 -10.2,7.2 -10.2,7.2 -10.2,7.2 -10.2,7.8 -10.2,7.2 -10.2,7.2 -10.2,7.8 -8.4,6 -8.4,6.6 -9,7.2 -9,6.6 -9.6,7.2 -10.2,7.8 -10.8,7.2 -10.8,7.8 -12,7.8 -12,7.8 -12,7.2 -12.6,7.2 -12.6,6.6 -13.2,6.6 -12.6,6 -13.2,5.4 -13.2,5.4 -13.2,4.2 -13.2,4.2 -13.8,3 -13.2,3 -13.2,2.4 -13.8,1.8 -13.8,1.8 -15,1.2 -15,1.2 h -31.2 l -16.2,-0.6 -16.2,-0.6 -16.2,-1.8 -15.6,-1.8 -15.6,-2.4 -15.6,-2.4 -14.4,-3 -13.8,-3.6 -13.2,-3.6 -12.6,-4.2 -12,-4.2 -10.8,-4.8 -10.8,-5.4 -9,-5.4 -11.4,-6.6 -9.6,-7.8 -9.6,-8.4 -9,-8.4 -8.4,-9.6 -7.8,-10.2 -7.8,-10.8 -7.2,-10.8 -6.6,-11.4 -6.6,-11.4 -6,-11.4 -6,-11.4 -6,-11.4 -6,-10.8 -5.4,-10.2 -6,-10.2 -5.4,-9 -6.6,-9.6 -6.6,-9 -6.6,-8.4 -7.8,-9 -8.4,-9 -8.4,-8.4 -9,-9 -9.6,-9 -9.6,-8.4 -9.6,-9 -10.2,-8.4 -9.6,-9 -9.6,-8.4 -9,-7.8 -9,-8.4 -8.4,-7.8 -8.4,-7.2 -7.2,-7.8 -7.2,-7.8 -7.2,-8.4 -7.2,-9 -6.6,-10.2 -7.2,-10.2 -6.6,-11.4 -6.6,-12.6 -7.2,-14.4 -7.2,-15 -7.8,-16.2 -6.6,-15.6 -6.6,-14.4 -5.4,-12 -6.6,-16.2" />
            </g>
          </g>
        </g>
      </g>
      <g
         id="g4568">
        <g
           clip-path="url(#clipPath4574)"
           id="g4570">
          <g
             clip-path="url(#clipPath4580)"
             id="g4576">
            <path
               inkscape:connector-curvature="0"
               id="path4582"
               style="fill:#0000ff;fill-opacity:1;fill-rule:evenodd;stroke:none"
               d="m 152.94,643.7 -0.36,-13.08 8.82,9.6 -8.46,3.48" />
            <g
               transform="scale(0.1)"
               id="g4584">
              <path
                 inkscape:connector-curvature="0"
                 id="path4586"
                 style="fill:none;stroke:#0000ff;stroke-width:9;stroke-linecap:butt;stroke-linejoin:miter;stroke-miterlimit:10;stroke-dasharray:none;stroke-opacity:1"
                 d="m 1529.4,6437 -3.6,-130.8 88.2,96 z" />
            </g>
          </g>
        </g>
      </g>
      <g
         id="g4588">
        <g
           clip-path="url(#clipPath4594)"
           id="g4590">
          <g
             clip-path="url(#clipPath4600)"
             id="g4596">
            <g
               transform="scale(0.1)"
               id="g4602">
              <path
                 inkscape:connector-curvature="0"
                 id="path4604"
                 style="fill:none;stroke:#8f008f;stroke-width:27;stroke-linecap:butt;stroke-linejoin:bevel;stroke-miterlimit:10;stroke-dasharray:none;stroke-opacity:1"
                 d="m 2366.4,6069.2 h 0.6 l 2.4,-0.6 6.6,-1.2 10.2,-1.2 12,-2.4 13.2,-1.8 12,-2.4 11.4,-1.8 9.6,-1.8 9,-1.8 8.4,-1.8 8.4,-2.4 6.6,-1.2 7.2,-1.8 7.8,-2.4 7.8,-2.4 8.4,-2.4 8.4,-2.4 9,-2.4 9,-3 9,-3 9,-3 8.4,-3.6 9,-3 8.4,-3 9,-3.6 8.4,-3 9,-3.6 9.6,-4.2 10.2,-4.2 10.2,-4.2 10.2,-4.8 10.8,-5.4 10.2,-5.4 10.2,-5.4 10.2,-5.4 9,-5.4 8.4,-5.4 8.4,-5.4 7.2,-6 7.2,-5.4 7.2,-6 6.6,-6.6 6.6,-7.2 6.6,-7.2 6.6,-7.8 6,-7.8 5.4,-8.4 5.4,-8.4 4.8,-8.4 4.2,-7.8 4.2,-8.4 3.6,-7.8 3,-7.8 3,-8.4 3,-8.4 3,-9 2.4,-9 2.4,-9.6 1.8,-10.2 1.8,-9.6 1.2,-10.8 1.2,-9.6 0.6,-10.2 V 5726 l -0.6,-9 -1.2,-9 -1.2,-7.8 -1.8,-7.8 -1.8,-7.8 -2.4,-7.8 -3,-7.8 -3.6,-7.8 -4.2,-7.8 -4.8,-7.2 -5.4,-7.2 -5.4,-6.6 -6.6,-5.4 -6.6,-5.4 -7.8,-4.2 -7.2,-3.6 -8.4,-3 -9,-1.8 -9,-1.8 -10.2,-0.6 H 2694 l -12.6,0.6 -13.2,0.6 -13.8,1.2 -13.8,0.6 -13.8,1.2 -13.2,0.6 -13.8,0.6 h -24.6 l -11.4,-1.2 -10.2,-1.2 -9.6,-2.4 -9.6,-3 -8.4,-3.6 -9,-4.8 -8.4,-5.4 -7.8,-6.6 -8.4,-7.2 -8.4,-7.2 -8.4,-8.4 -7.8,-8.4 -8.4,-8.4 -8.4,-9 -7.8,-8.4 -8.4,-8.4 -9,-7.8 -8.4,-7.8 -9.6,-7.2 -7.8,-6 -8.4,-5.4 -8.4,-6 -9.6,-4.8 -10.2,-5.4 -10.8,-5.4 -12,-4.8 -12,-4.2 -13.2,-4.2 -13.2,-4.2 -13.8,-3 -14.4,-3 -14.4,-2.4 -15,-1.8 -15,-1.2 -15,-0.6 h -30 l -15,1.2 -15.6,1.8 -13.2,1.8 -13.8,1.8 -13.8,3 -14.4,3 -14.4,3.6 -15.6,4.2 -15.6,4.8 -16.2,4.8 -16.2,6 -16.8,6 -16.8,6.6 -16.8,7.2 -16.8,7.8 -16.8,7.8 -16.2,8.4 -16.2,8.4 -15.6,9 -15,9 -14.4,9 -14.4,9.6 -13.2,9.6 -13.2,9.6 -12.6,10.2 -12,10.2 -10.8,9.6 -10.2,9.6 -10.8,10.8 -10.2,10.8 -9.6,12 -10.8,12 -10.2,13.2 -10.8,14.4 -10.8,15.6 -11.4,16.2 -11.4,18 -12,18.6 -12,19.2 -12.6,19.8 -12.6,20.4 -12,19.8 -10.8,19.2 -10.8,18 -9,16.2 -7.8,13.2 -6,10.8 -9.6,16.8" />
            </g>
          </g>
        </g>
      </g>
      <g
         id="g4606">
        <g
           clip-path="url(#clipPath4612)"
           id="g4608">
          <g
             clip-path="url(#clipPath4618)"
             id="g4614">
            <path
               inkscape:connector-curvature="0"
               id="path4620"
               style="fill:#8f008f;fill-opacity:1;fill-rule:evenodd;stroke:none"
               d="m 166.8,582.86 -9.84,9 2.76,-13.02 7.08,4.02" />
            <g
               transform="scale(0.1)"
               id="g4622">
              <path
                 inkscape:connector-curvature="0"
                 id="path4624"
                 style="fill:none;stroke:#8f008f;stroke-width:9;stroke-linecap:butt;stroke-linejoin:miter;stroke-miterlimit:10;stroke-dasharray:none;stroke-opacity:1"
                 d="m 1668,5828.6 -98.4,90 27.6,-130.2 z" />
            </g>
          </g>
        </g>
      </g>
      <g
         id="g4626">
        <g
           clip-path="url(#clipPath4632)"
           id="g4628">
          <g
             clip-path="url(#clipPath4638)"
             id="g4634">
            <g
               transform="scale(0.1)"
               id="g4640">
              <path
                 inkscape:connector-curvature="0"
                 id="path4642"
                 style="fill:none;stroke:#0000ff;stroke-width:27;stroke-linecap:butt;stroke-linejoin:bevel;stroke-miterlimit:10;stroke-dasharray:none;stroke-opacity:1"
                 d="m 2030.4,5844.8 h 0.6 l 1.8,0.6 5.4,2.4 9,3 12,4.2 15,6 16.2,5.4 16.2,6.6 15,6 14.4,5.4 13.2,5.4 11.4,4.8 10.8,4.8 9.6,4.8 9,4.8 8.4,4.8 8.4,4.8 8.4,5.4 8.4,5.4 7.8,5.4 8.4,6 8.4,6.6 8.4,6.6 8.4,6.6 7.8,6.6 7.8,7.2 7.2,6.6 7.2,6.6 6.6,6.6 6.6,6 6,6 5.4,6 6.6,7.2 6.6,6.6 6,7.2 6.6,7.8 6.6,7.8 6,8.4 6.6,8.4 6,8.4 6,8.4 4.8,8.4 5.4,9 4.2,8.4 4.8,8.4 3.6,8.4 3.6,9 3.6,9 3.6,10.2 3.6,10.2 3,10.2 3,11.4 3,10.8 2.4,11.4 2.4,10.8 2.4,10.8 1.2,9.6 1.8,9.6 1.2,9 0.6,8.4 1.2,9 0.6,9 v 18.6 l -0.6,8.4 -0.6,9 -0.6,8.4 -1.2,7.8 -1.8,7.8 -1.2,7.2 -1.8,6.6 -2.4,6.6 -2.4,6 -2.4,6.6 -3,7.2 -3,6.6 -4.2,7.2 -4.2,7.2 -4.2,6.6 -4.8,7.2 -4.8,6 -5.4,6 -5.4,6 -5.4,5.4 -5.4,4.8 -6.6,5.4 -6.6,5.4 -7.8,5.4 -7.8,4.8 -8.4,5.4 -8.4,4.8 -8.4,4.8 -8.4,4.8 -8.4,4.2 -7.8,4.2 -7.8,3.6 -6.6,3 -6.6,3.6 -6.6,3 -7.8,3 -7.8,3.6 -7.8,3.6 -8.4,3.6 -9,3.6 -9,3 -9.6,3.6 -9.6,3.6 -9.6,3 -9.6,3.6 -10.2,3 -9,3 -9.6,3 -10.8,3.6 -10.8,3 -11.4,2.4 -12,3 -12.6,2.4 -12.6,1.8 -12.6,1.2 -12.6,1.2 h -23.4 l -10.8,-1.2 -10.8,-1.8 -9.6,-2.4 -9,-3.6 -7.8,-3.6 -7.8,-4.2 -7.8,-5.4 -7.8,-6 -7.2,-6.6 -7.8,-7.8 -7.2,-7.8 -7.8,-9 -7.8,-9 -7.8,-9.6 -7.8,-10.2 -7.2,-9.6 -7.8,-10.2 -7.8,-10.2 -7.2,-9.6 -7.8,-9.6 -7.8,-9.6 -7.8,-9 -7.2,-8.4 -7.8,-8.4 -8.4,-8.4 -9,-8.4 -9.6,-9.6 -10.8,-9.6 -12,-10.2 -12.6,-11.4 -14.4,-12 -15,-12 -15.6,-13.2 -15.6,-12.6 -15,-12 -13.8,-11.4 -11.4,-9 -20.4,-16.2" />
            </g>
          </g>
        </g>
      </g>
      <g
         id="g4644">
        <g
           clip-path="url(#clipPath4650)"
           id="g4646">
          <g
             clip-path="url(#clipPath4656)"
             id="g4652">
            <path
               inkscape:connector-curvature="0"
               id="path4658"
               style="fill:#0000ff;fill-opacity:1;fill-rule:evenodd;stroke:none"
               d="m 174.36,636.68 -7.8,-11.46 12.9,5.1 -5.1,6.36" />
            <g
               transform="scale(0.1)"
               id="g4660">
              <path
                 inkscape:connector-curvature="0"
                 id="path4662"
                 style="fill:none;stroke:#0000ff;stroke-width:9;stroke-linecap:butt;stroke-linejoin:miter;stroke-miterlimit:10;stroke-dasharray:none;stroke-opacity:1"
                 d="m 1743.6,6366.8 -78,-114.6 129,51 z" />
            </g>
          </g>
        </g>
      </g>
      <g
         id="g4664">
        <g
           clip-path="url(#clipPath4670)"
           id="g4666">
          <g
             clip-path="url(#clipPath4676)"
             id="g4672">
            <g
               transform="scale(0.1)"
               id="g4678">
              <path
                 inkscape:connector-curvature="0"
                 id="path4680"
                 style="fill:none;stroke:#ff0000;stroke-width:36;stroke-linecap:butt;stroke-linejoin:bevel;stroke-miterlimit:10;stroke-dasharray:none;stroke-opacity:1"
                 d="m 2060.4,5841.2 h 2.4 l 5.4,0.6 9.6,1.2 13.2,1.2 16.8,1.8 19.2,2.4 19.8,2.4 20.4,2.4 19.2,1.8 18,2.4 16.2,1.8 14.4,2.4 13.2,1.8 11.4,1.8 10.8,1.8 10.2,1.8 9.6,1.8 10.8,2.4 11.4,3 10.8,3 10.2,3 10.2,3.6 10.2,4.2 9.6,3.6 9.6,4.8 9,4.2 8.4,4.2 8.4,4.8 7.8,4.8 7.8,4.8 7.2,4.8 7.8,5.4 7.8,5.4 7.8,5.4 8.4,6.6 9,6 9,7.2 9,6.6 9,7.2 9,7.2 8.4,6.6 7.8,6.6 7.8,6.6 7.2,6 6.6,6 6.6,6 6.6,6 6.6,6 6.6,6 6.6,6.6 6.6,6.6 7.2,6.6 6.6,7.2 6.6,6.6 7.2,7.2 6.6,7.2 6,7.2 6.6,7.2 6.6,7.2 6,6.6 6.6,7.2 6.6,7.8 6.6,7.8 7.2,8.4 7.8,8.4 7.8,9 7.8,8.4 8.4,9 8.4,9 7.8,8.4 8.4,8.4 7.8,7.8 7.2,7.8 7.8,6.6 7.2,7.2 7.2,6 7.8,6.6 7.2,6 8.4,6 8.4,6 8.4,6 9,6 9.6,6 9.6,5.4 9.6,4.8 9.6,5.4 9.6,4.2 10.2,4.8 9.6,3.6 10.2,4.2 9.6,3.6 9.6,3 9.6,3.6 9.6,3 10.8,3 10.8,3.6 11.4,3 12,3.6 12,3 12,3.6 12,3 12,3 12,3 11.4,3 10.8,3 10.8,3 9.6,2.4 9.6,3 9.6,2.4 11.4,3.6 10.8,3 11.4,3.6 12,4.2 12.6,4.2 13.2,4.8 14.4,5.4 14.4,5.4 13.8,5.4 12.6,4.8 17.4,6.6" />
            </g>
          </g>
        </g>
      </g>
      <g
         id="g4682">
        <g
           clip-path="url(#clipPath4688)"
           id="g4684">
          <g
             clip-path="url(#clipPath4694)"
             id="g4690">
            <path
               inkscape:connector-curvature="0"
               id="path4696"
               style="fill:#ff0000;fill-opacity:1;fill-rule:evenodd;stroke:none"
               d="m 311.88,633.02 10.14,9.24 -13.74,0.3 3.6,-9.54" />
            <g
               transform="scale(0.1)"
               id="g4698">
              <path
                 inkscape:connector-curvature="0"
                 id="path4700"
                 style="fill:none;stroke:#ff0000;stroke-width:9;stroke-linecap:butt;stroke-linejoin:miter;stroke-miterlimit:10;stroke-dasharray:none;stroke-opacity:1"
                 d="m 3118.8,6330.2 101.4,92.4 -137.4,3 z" />
            </g>
            <text
               id="text4704"
               style="font-variant:normal;font-weight:bold;font-size:18px;font-family:'Times New Roman';-inkscape-font-specification:Times-Bold;writing-mode:lr-tb;fill:#0000ff;fill-opacity:1;fill-rule:nonzero;stroke:none"
               transform="matrix(1,0,0,-1,197.94,635.42)">
              <tspan
                 id="tspan4702"
                 y="0"
                 x="0">1</tspan>
            </text>
            <text
               id="text4708"
               style="font-style:italic;font-variant:normal;font-weight:bold;font-size:13.5px;font-family:'Times New Roman';-inkscape-font-specification:Times-BoldItalic;writing-mode:lr-tb;fill:#8f008f;fill-opacity:1;fill-rule:nonzero;stroke:none"
               transform="matrix(1,0,0,-1,75.6602,556.52)">
              <tspan
                 id="tspan4706"
                 sodipodi:role="line"
                 y="0"
                 x="0 6.75 10.125 16.875 22.126499 28.876499 36.3825 42.376499 49.8825 55.876499 62.626499 66.001503 72.751503 80.2575 83.6325">1 branched on 2</tspan>
            </text>
            <text
               id="text4712"
               style="font-variant:normal;font-weight:bold;font-size:18px;font-family:'Times New Roman';-inkscape-font-specification:Times-Bold;writing-mode:lr-tb;fill:#0000ff;fill-opacity:1;fill-rule:nonzero;stroke:none"
               transform="matrix(1,0,0,-1,267.06,655.82)">
              <tspan
                 id="tspan4710"
                 y="0"
                 x="0">3</tspan>
            </text>
            <text
               id="text4716"
               style="font-variant:normal;font-weight:bold;font-size:18px;font-family:'Times New Roman';-inkscape-font-specification:Times-Bold;writing-mode:lr-tb;fill:#0000ff;fill-opacity:1;fill-rule:nonzero;stroke:none"
               transform="matrix(1,0,0,-1,248.2198,637.52)">
              <tspan
                 id="tspan4714"
                 y="0"
                 x="0">2</tspan>
            </text>
            <path
               inkscape:connector-curvature="0"
               id="path4718"
               style="fill:#000000;fill-opacity:1;fill-rule:evenodd;stroke:none"
               d="m 205.02,584.48 c 0,-1.391 -1.129,-2.52 -2.52,-2.52 -1.391,0 -2.52,1.129 -2.52,2.52 0,1.391 1.129,2.52 2.52,2.52 1.391,0 2.52,-1.129 2.52,-2.52" />
            <g
               transform="scale(0.1)"
               id="g4720">
              <path
                 inkscape:connector-curvature="0"
                 id="path4722"
                 style="fill:none;stroke:#000000;stroke-width:4.5;stroke-linecap:butt;stroke-linejoin:miter;stroke-miterlimit:10;stroke-dasharray:none;stroke-opacity:1"
                 d="m 2050.2,5844.8 c 0,-13.91 -11.29,-25.2 -25.2,-25.2 -13.91,0 -25.2,11.29 -25.2,25.2 0,13.91 11.29,25.2 25.2,25.2 13.91,0 25.2,-11.29 25.2,-25.2 z" />
            </g>
            <path
               inkscape:connector-curvature="0"
               id="path4724"
               style="fill:#ff0000;fill-opacity:1;fill-rule:nonzero;stroke:none"
               d="m 241.02,606.92 c 0,-2.419 -1.961,-4.38 -4.38,-4.38 -2.419,0 -4.38,1.961 -4.38,4.38 0,2.419 1.961,4.38 4.38,4.38 2.419,0 4.38,-1.961 4.38,-4.38" />
            <path
               inkscape:connector-curvature="0"
               id="path4742"
               style="fill:url(#pattern4740);fill-opacity:1;fill-rule:nonzero;stroke:none"
               d="m 241.02,606.92 c 0,-2.419 -1.961,-4.38 -4.38,-4.38 -2.419,0 -4.38,1.961 -4.38,4.38 0,2.419 1.961,4.38 4.38,4.38 2.419,0 4.38,-1.961 4.38,-4.38" />
            <g
               transform="scale(0.1)"
               id="g4744">
              <path
                 inkscape:connector-curvature="0"
                 id="path4746"
                 style="fill:none;stroke:#ff0000;stroke-width:4.5;stroke-linecap:butt;stroke-linejoin:miter;stroke-miterlimit:10;stroke-dasharray:none;stroke-opacity:1"
                 d="m 2410.2,6069.2 c 0,-24.19 -19.61,-43.8 -43.8,-43.8 -24.19,0 -43.8,19.61 -43.8,43.8 0,24.19 19.61,43.8 43.8,43.8 24.19,0 43.8,-19.61 43.8,-43.8 z" />
            </g>
            <g
               transform="scale(0.1)"
               id="g4748">
              <path
                 inkscape:connector-curvature="0"
                 id="path4750"
                 style="fill:none;stroke:#000000;stroke-width:18;stroke-linecap:butt;stroke-linejoin:miter;stroke-miterlimit:10;stroke-dasharray:36;stroke-dashoffset:0;stroke-opacity:1"
                 d="M 2361,7016.6 3277.8,5361.2" />
            </g>
            <g
               transform="scale(0.1)"
               id="g4752">
              <path
                 inkscape:connector-curvature="0"
                 id="path4754"
                 style="fill:none;stroke:#000000;stroke-width:18;stroke-linecap:butt;stroke-linejoin:miter;stroke-miterlimit:10;stroke-dasharray:36;stroke-dashoffset:0;stroke-opacity:1"
                 d="m 2094.6,6995.6 891,-1630.2" />
            </g>
            <g
               transform="scale(0.1)"
               id="g4756">
              <path
                 inkscape:connector-curvature="0"
                 id="path4758"
                 style="fill:none;stroke:#000000;stroke-width:18;stroke-linecap:butt;stroke-linejoin:miter;stroke-miterlimit:10;stroke-dasharray:45;stroke-dashoffset:0;stroke-opacity:1"
                 d="m 1877.4,6991.4 891,-1630.2" />
            </g>
          </g>
        </g>
      </g>
      <g
         id="g4760">
        <g
           clip-path="url(#clipPath4766)"
           id="g4762">
          <text
             id="text4770"
             style="font-variant:normal;font-weight:normal;font-size:13.94769955px;font-family:CMMI12;-inkscape-font-specification:CMMI12;writing-mode:lr-tb;fill:#000000;fill-opacity:1;fill-rule:nonzero;stroke:none"
             transform="matrix(1,0,0,-1,201.6,570.24)">
            <tspan
               id="tspan4768"
               y="0"
               x="0">x</tspan>
          </text>
          <text
             id="text4774"
             style="font-variant:normal;font-weight:normal;font-size:19.9253006px;font-family:CMSY10;-inkscape-font-specification:CMSY10;writing-mode:lr-tb;fill:#0000ff;fill-opacity:1;fill-rule:nonzero;stroke:none"
             transform="matrix(1,0,0,-1,270.36,520.8)">
            <tspan
               id="tspan4772"
               y="0"
               x="0">Q</tspan>
          </text>
          <text
             id="text4778"
             style="font-variant:normal;font-weight:normal;font-size:13.94760036px;font-family:CMR12;-inkscape-font-specification:CMR12;writing-mode:lr-tb;fill:#0000ff;fill-opacity:1;fill-rule:nonzero;stroke:none"
             transform="matrix(1,0,0,-1,286.6799,517.8)">
            <tspan
               id="tspan4776"
               y="0"
               x="0">1</tspan>
          </text>
          <text
             id="text4782"
             style="font-variant:normal;font-weight:normal;font-size:19.9253006px;font-family:CMSY10;-inkscape-font-specification:CMSY10;writing-mode:lr-tb;fill:#0000ff;fill-opacity:1;fill-rule:nonzero;stroke:none"
             transform="matrix(1,0,0,-1,295.7998,520.8)">
            <tspan
               id="tspan4780"
               y="0"
               x="0">Q</tspan>
          </text>
          <text
             id="text4786"
             style="font-variant:normal;font-weight:normal;font-size:13.94760036px;font-family:CMR12;-inkscape-font-specification:CMR12;writing-mode:lr-tb;fill:#0000ff;fill-opacity:1;fill-rule:nonzero;stroke:none"
             transform="matrix(1,0,0,-1,312.1197,517.8)">
            <tspan
               id="tspan4784"
               y="0"
               x="0">2</tspan>
          </text>
          <text
             id="text4790"
             style="font-variant:normal;font-weight:normal;font-size:19.9253006px;font-family:CMSY10;-inkscape-font-specification:CMSY10;writing-mode:lr-tb;fill:#0000ff;fill-opacity:1;fill-rule:nonzero;stroke:none"
             transform="matrix(1,0,0,-1,331.4396,520.8)">
            <tspan
               id="tspan4788"
               y="0"
               x="0">Q</tspan>
          </text>
          <text
             id="text4794"
             style="font-variant:normal;font-weight:normal;font-size:13.94760036px;font-family:CMR12;-inkscape-font-specification:CMR12;writing-mode:lr-tb;fill:#0000ff;fill-opacity:1;fill-rule:nonzero;stroke:none"
             transform="matrix(1,0,0,-1,347.7599,517.8)">
            <tspan
               id="tspan4792"
               y="0"
               x="0">3</tspan>
          </text>
          <text
             id="text4798"
             style="font-variant:normal;font-weight:normal;font-size:13.94769955px;font-family:CMSY10;-inkscape-font-specification:CMSY10;writing-mode:lr-tb;fill:#0000ff;fill-opacity:1;fill-rule:nonzero;stroke:none"
             transform="matrix(1,0,0,-1,158.2799,487.6801)">
            <tspan
               id="tspan4796"
               y="0"
               x="0">Q</tspan>
          </text>
          <text
             id="text4802"
             style="font-variant:normal;font-weight:normal;font-size:9.76334px;font-family:CMR9;-inkscape-font-specification:CMR9;writing-mode:lr-tb;fill:#0000ff;fill-opacity:1;fill-rule:nonzero;stroke:none"
             transform="matrix(1,0,0,-1,169.6799,485.5199)">
            <tspan
               id="tspan4800"
               y="0"
               x="0">1</tspan>
          </text>
          <text
             id="text4806"
             style="font-variant:normal;font-weight:normal;font-size:13.94769955px;font-family:CMMI12;-inkscape-font-specification:CMMI12;writing-mode:lr-tb;fill:#0000ff;fill-opacity:1;fill-rule:nonzero;stroke:none"
             transform="matrix(1,0,0,-1,179.0397,487.6801)">
            <tspan
               id="tspan4804"
               y="0"
               x="0">&lt;</tspan>
          </text>
          <text
             id="text4810"
             style="font-variant:normal;font-weight:normal;font-size:13.94769955px;font-family:CMSY10;-inkscape-font-specification:CMSY10;writing-mode:lr-tb;fill:#0000ff;fill-opacity:1;fill-rule:nonzero;stroke:none"
             transform="matrix(1,0,0,-1,193.5596,487.6801)">
            <tspan
               id="tspan4808"
               y="0"
               x="0">Q</tspan>
          </text>
          <text
             id="text4814"
             style="font-variant:normal;font-weight:normal;font-size:9.76334px;font-family:CMR9;-inkscape-font-specification:CMR9;writing-mode:lr-tb;fill:#0000ff;fill-opacity:1;fill-rule:nonzero;stroke:none"
             transform="matrix(1,0,0,-1,204.96,485.5199)">
            <tspan
               id="tspan4812"
               y="0"
               x="0">2</tspan>
          </text>
          <text
             id="text4818"
             style="font-variant:normal;font-weight:normal;font-size:13.94769955px;font-family:CMMI12;-inkscape-font-specification:CMMI12;writing-mode:lr-tb;fill:#0000ff;fill-opacity:1;fill-rule:nonzero;stroke:none"
             transform="matrix(1,0,0,-1,214.3198,487.6801)">
            <tspan
               id="tspan4816"
               y="0"
               x="0">&lt;</tspan>
          </text>
          <text
             id="text4822"
             style="font-variant:normal;font-weight:normal;font-size:13.94769955px;font-family:CMSY10;-inkscape-font-specification:CMSY10;writing-mode:lr-tb;fill:#0000ff;fill-opacity:1;fill-rule:nonzero;stroke:none"
             transform="matrix(1,0,0,-1,228.8397,487.6801)">
            <tspan
               id="tspan4820"
               y="0"
               x="0">Q</tspan>
          </text>
          <text
             id="text4826"
             style="font-variant:normal;font-weight:normal;font-size:9.76334px;font-family:CMR9;-inkscape-font-specification:CMR9;writing-mode:lr-tb;fill:#0000ff;fill-opacity:1;fill-rule:nonzero;stroke:none"
             transform="matrix(1,0,0,-1,240.2397,485.5199)">
            <tspan
               id="tspan4824"
               y="0"
               x="0">3</tspan>
          </text>
          <text
             id="text4830"
             style="font-variant:normal;font-weight:normal;font-size:19.9253006px;font-family:CMSY10;-inkscape-font-specification:CMSY10;writing-mode:lr-tb;fill:#ff0000;fill-opacity:1;fill-rule:nonzero;stroke:none"
             transform="matrix(1,0,0,-1,106.32,616.08)">
            <tspan
               id="tspan4828"
               y="0"
               x="0">A</tspan>
          </text>
          <text
             id="text4834"
             style="font-variant:normal;font-weight:normal;font-size:19.9253006px;font-family:CMSY10;-inkscape-font-specification:CMSY10;writing-mode:lr-tb;fill:#01ff00;fill-opacity:1;fill-rule:nonzero;stroke:none"
             transform="matrix(1,0,0,-1,358.32,679.08)">
            <tspan
               id="tspan4832"
               y="0"
               x="0">B</tspan>
          </text>
          <text
             id="text4838"
             style="font-variant:normal;font-weight:normal;font-size:13.94769955px;font-family:CMMI12;-inkscape-font-specification:CMMI12;writing-mode:lr-tb;fill:#000000;fill-opacity:1;fill-rule:nonzero;stroke:none"
             transform="matrix(1,0,0,-1,326.76,589.08)">
            <tspan
               id="tspan4836"
               y="0"
               x="0">N</tspan>
          </text>
          <text
             id="text4842"
             style="font-variant:normal;font-weight:normal;font-size:13.94769955px;font-family:CMR12;-inkscape-font-specification:CMR12;writing-mode:lr-tb;fill:#000000;fill-opacity:1;fill-rule:nonzero;stroke:none"
             transform="matrix(1,0,0,-1,343.0799,589.08)">
            <tspan
               id="tspan4840"
               sodipodi:role="line"
               y="0"
               x="0 14.519556 26.514578 31.800756 37.086933 44.646587 48.844845 54.967884 61.090927 66.377106 73.211479 78.497658 82.333275 88.456314">=3trajectories</tspan>
          </text>
          <g
             transform="matrix(110.16,0,0,-0.6,326.748,584.748)"
             id="g4844">
            <rect
               id="rect4846"
               style="fill:#000000;fill-opacity:1;fill-rule:nonzero"
               transform="matrix(1,0,0,-1,0,1)"
               height="1"
               width="1"
               y="0"
               x="0" />
          </g>
        </g>
      </g>
    </g>
  </g>
</svg>
